M48
;DRILL file {KiCad (5.0.0-rc2-dev-495-g4202bb6af)} date Fri May 11 16:10:13 2018
;FORMAT={-:-/ absolute / inch / decimal}
FMAT,2
INCH,TZ
T1C0.0079
T2C0.0157
T3C0.0354
T4C0.0374
T5C0.0630
T6C0.0866
T7C0.1260
%
G90
G05
M72
T1
X0.05Y-0.05
X0.05Y-0.25
X0.05Y-0.45
X0.05Y-0.65
X0.05Y-0.85
X0.05Y-1.05
X0.05Y-1.25
X0.05Y-1.45
X0.05Y-1.6
X0.05Y-1.75
X0.245Y-0.295
X0.245Y-0.345
X0.245Y-0.4
X0.245Y-0.455
X0.245Y-0.51
X0.245Y-0.57
X0.245Y-1.045
X0.245Y-1.095
X0.245Y-1.15
X0.245Y-1.205
X0.245Y-1.26
X0.245Y-1.32
X0.25Y-1.75
X0.3Y-0.05
X0.345Y-0.945
X0.37Y-0.895
X0.39Y-1.56
X0.415Y-0.65
X0.415Y-0.705
X0.415Y-0.765
X0.415Y-0.82
X0.45Y-1.75
X0.455Y-0.985
X0.5Y-0.05
X0.55Y-0.54
X0.55Y-0.59
X0.575Y-0.205
X0.575Y-0.165
X0.58Y-1.37
X0.5825Y-0.795
X0.5825Y-0.8737
X0.5825Y-0.9525
X0.585Y-1.195
X0.59Y-0.505
X0.59Y-0.64
X0.61Y-0.15
X0.635Y-1.545
X0.645Y-0.035
X0.6463Y-0.7163
X0.6463Y-0.795
X0.6463Y-0.795
X0.6463Y-0.8737
X0.6463Y-0.9525
X0.6463Y-1.0312
X0.6463Y-1.11
X0.65Y-0.15
X0.65Y-0.26
X0.65Y-1.195
X0.65Y-1.75
X0.68Y-1.505
X0.7Y-0.37
X0.7Y-0.485
X0.72Y-0.625
X0.725Y-0.7163
X0.725Y-0.795
X0.725Y-0.795
X0.725Y-0.8737
X0.725Y-0.8737
X0.725Y-0.9525
X0.725Y-0.9525
X0.725Y-1.0312
X0.725Y-1.0312
X0.725Y-1.11
X0.725Y-1.11
X0.75Y-1.535
X0.78Y-1.325
X0.8037Y-0.7163
X0.8037Y-0.795
X0.8037Y-0.795
X0.8037Y-0.8737
X0.8037Y-0.9525
X0.8037Y-1.0312
X0.835Y-1.465
X0.845Y-0.035
X0.85Y-1.75
X0.855Y-1.245
X0.875Y-0.625
X0.8825Y-0.7163
X0.8825Y-0.795
X0.8825Y-0.795
X0.8825Y-0.8737
X0.8825Y-0.9525
X0.885Y-0.395
X0.885Y-0.465
X0.9Y-1.2
X0.945Y-1.245
X0.9612Y-0.7163
X0.9612Y-0.795
X0.9612Y-0.795
X0.9612Y-0.8737
X0.9612Y-0.9525
X0.9612Y-1.11
X0.98Y-1.205
X0.99Y-0.035
X0.99Y-0.375
X0.995Y-1.31
X1.Y-0.51
X1.Y-1.47
X1.025Y-1.28
X1.04Y-0.795
X1.04Y-0.8737
X1.04Y-0.9525
X1.04Y-0.9525
X1.055Y-0.085
X1.055Y-0.32
X1.055Y-0.545
X1.06Y-1.25
X1.06Y-1.47
X1.1Y-0.05
X1.1187Y-0.8737
X1.1187Y-0.9525
X1.12Y-0.58
X1.12Y-0.68
X1.125Y-1.47
X1.16Y-0.58
X1.165Y-0.68
X1.19Y-0.595
X1.19Y-0.63
X1.19Y-0.665
X1.19Y-1.45
X1.224Y-1.52
X1.26Y-1.45
X1.27Y-1.245
X1.292Y-1.554
X1.3Y-0.045
X1.31Y-1.285
X1.32Y-1.33
X1.32Y-1.42
X1.33Y-1.45
X1.36Y-0.775
X1.36Y-0.84
X1.368Y-1.594
X1.37Y-0.9
X1.37Y-1.285
X1.375Y-0.94
X1.375Y-1.04
X1.38Y-1.375
X1.404Y-1.63
X1.42Y-0.66
X1.425Y-1.285
X1.43Y-0.775
X1.465Y-0.71
X1.48Y-0.605
X1.5Y-0.045
X1.526Y-1.556
X1.54Y-0.165
X1.62Y-1.51
X1.625Y-0.165
X1.635Y-0.66
X1.6444Y-0.46
X1.6444Y-0.535
X1.695Y-0.84
X1.695Y-0.865
X1.695Y-0.89
X1.695Y-0.915
X1.695Y-0.94
X1.695Y-1.005
X1.695Y-1.045
X1.7Y-0.045
X1.725Y-0.98
X1.725Y-1.065
X1.7267Y-0.1983
X1.7267Y-0.397
X1.736Y-0.692
X1.738Y-0.894
X1.74Y-0.535
X1.755Y-1.005
X1.795Y-0.405
X1.795Y-0.405
X1.8Y-1.45
X1.845Y-0.245
X1.85Y-0.345
X1.85Y-0.345
X1.895Y-1.315
X1.895Y-0.175
X1.9Y-0.05
X1.93Y-1.25
X1.954Y-0.456
X1.956Y-0.404
X1.96Y-0.055
X1.965Y-0.18
X1.986Y-1.432
X1.9944Y-0.3806
X1.995Y-1.18
X2.0027Y-0.82
X2.0027Y-0.8845
X2.0027Y-1.005
X2.025Y-0.24
X2.05Y-0.855
X2.05Y-1.07
X2.07Y-0.28
X2.096Y-0.84
X2.1Y-0.055
X2.13Y-0.33
X2.135Y-0.855
X2.14Y-0.685
X2.16Y-1.462
X2.175Y-1.11
X2.18Y-1.0175
X2.19Y-0.25
X2.195Y-1.245
X2.212Y-1.076
X2.232Y-1.492
X2.25Y-0.055
X2.25Y-0.175
X2.29Y-0.25
X2.296Y-1.526
X2.3325Y-0.8775
X2.375Y-0.825
X2.3875Y-0.9275
X2.394Y-0.342
X2.4Y-0.055
X2.41Y-0.28
X2.414Y-1.368
X2.4425Y-0.3425
X2.455Y-0.24
X2.466Y-1.558
X2.486Y-0.92
X2.498Y-1.08
X2.5Y-0.28
X2.5Y-0.34
X2.5Y-0.42
X2.516Y-1.288
X2.528Y-1.564
X2.545Y-0.34
X2.5488Y-1.1303
X2.55Y-0.055
X2.55Y-0.19
X2.55Y-0.3
X2.565Y-0.68
X2.6079Y-1.1303
X2.61Y-0.045
X2.61Y-0.31
X2.615Y-1.185
X2.656Y-0.512
X2.666Y-0.61
X2.6768Y-1.1992
X2.6768Y-1.2681
X2.7Y-0.055
X2.7Y-0.18
X2.7Y-0.28
X2.708Y-0.602
X2.726Y-0.7563
X2.726Y-1.41
X2.732Y-1.068
X2.732Y-1.128
X2.736Y-0.712
X2.736Y-0.782
X2.738Y-0.848
X2.74Y-0.914
X2.75Y-0.235
X2.754Y-0.968
X2.775Y-1.42
X2.778Y-0.668
X2.78Y-0.736
X2.782Y-0.874
X2.79Y-0.796
X2.79Y-1.1
X2.794Y-0.928
X2.794Y-1.002
X2.7949Y-0.7563
X2.7949Y-0.8252
X2.8Y-0.055
X2.814Y-0.392
X2.814Y-0.446
X2.816Y-0.698
X2.822Y-1.2
X2.824Y-1.076
X2.826Y-0.83
X2.832Y-0.892
X2.834Y-0.602
X2.838Y-0.512
X2.84Y-0.746
X2.854Y-0.664
X2.8638Y-0.8252
X2.8638Y-0.8941
X2.864Y-0.95
X2.868Y-0.392
X2.874Y-0.85
X2.876Y-0.78
X2.88Y-0.706
X2.8933Y-0.6382
X2.905Y-0.26
X2.912Y-1.002
X2.915Y-0.95
X2.95Y-0.055
X2.95Y-0.175
X2.962Y-1.004
X2.964Y-1.09
X3.005Y-1.345
X3.0075Y-0.475
X3.02Y-0.28
X3.024Y-1.028
X3.0269Y-0.3808
X3.044Y-0.782
X3.0475Y-0.8325
X3.065Y-0.24
X3.065Y-0.32
X3.09Y-1.135
X3.09Y-1.345
X3.1Y-0.055
X3.135Y-1.54
X3.15Y-1.745
X3.1654Y-0.3734
X3.1676Y-0.5827
X3.19Y-0.94
X3.19Y-1.085
X3.1922Y-0.5582
X3.2007Y-0.845
X3.205Y-1.395
X3.21Y-1.24
X3.2152Y-0.5352
X3.2412Y-0.5092
X3.25Y-0.055
X3.25Y-0.195
X3.25Y-1.745
X3.26Y-0.725
X3.29Y-0.69
X3.29Y-0.725
X3.295Y-1.085
X3.295Y-1.24
X3.295Y-1.395
X3.295Y-1.54
X3.325Y-0.775
X3.325Y-0.925
X3.328Y-0.4807
X3.33Y-0.42
X3.34Y-0.28
X3.35Y-0.05
X3.35Y-0.468
X3.35Y-1.745
X3.366Y-0.434
X3.384Y-0.35
X3.395Y-1.09
X3.395Y-1.245
X3.395Y-1.4
X3.395Y-1.545
X3.396Y-0.47
X3.42Y-0.25
X3.435Y-0.805
X3.435Y-0.925
X3.45Y-1.745
X3.46Y-0.6557
X3.476Y-0.388
X3.49Y-0.465
X3.495Y-0.33
X3.495Y-0.41
X3.495Y-1.09
X3.495Y-1.245
X3.495Y-1.4
X3.495Y-1.545
X3.5057Y-0.5707
X3.535Y-0.29
X3.538Y-0.36
X3.55Y-0.74
X3.55Y-0.925
X3.55Y-1.745
X3.56Y-0.115
X3.575Y-0.25
X3.59Y-0.465
X3.59Y-0.6557
X3.595Y-1.085
X3.595Y-1.24
X3.595Y-1.395
X3.595Y-1.54
X3.6Y-0.05
X3.605Y-0.565
X3.65Y-1.745
X3.655Y-0.35
X3.665Y-0.855
X3.69Y-0.415
X3.695Y-1.09
X3.695Y-1.245
X3.695Y-1.4
X3.695Y-1.545
X3.705Y-0.74
X3.75Y-1.745
X3.77Y-0.655
X3.78Y-0.97
X3.795Y-1.085
X3.795Y-1.24
X3.795Y-1.395
X3.795Y-1.54
X3.8Y-0.05
X3.825Y-0.58
X3.85Y-1.745
X3.91Y-1.155
X3.95Y-1.27
X3.95Y-1.425
X3.95Y-1.565
X4.Y-0.05
X4.Y-0.2
X4.Y-0.4
X4.Y-0.6
X4.Y-1.
X4.006Y-0.778
T2
X3.84Y-0.885
X3.8591Y-0.8391
X3.8591Y-0.9309
X3.905Y-0.82
X3.905Y-0.95
X3.9509Y-0.8391
X3.9509Y-0.9309
X3.97Y-0.885
X2.86Y-1.4441
X2.8791Y-1.3981
X2.8791Y-1.49
X2.925Y-1.3791
X2.925Y-1.509
X2.9709Y-1.3981
X2.9709Y-1.49
X2.99Y-1.4441
X1.1401Y-0.465
X1.1591Y-0.4191
X1.1591Y-0.5109
X1.205Y-0.4
X1.205Y-0.53
X1.251Y-0.4191
X1.251Y-0.5109
X1.27Y-0.465
T3
X0.3906Y-0.247
X0.3906Y-0.347
X0.3906Y-0.447
X0.3906Y-0.547
X0.4906Y-0.297
X0.4906Y-0.397
X0.4906Y-0.497
X0.4906Y-0.597
X0.3906Y-0.997
X0.3906Y-1.097
X0.3906Y-1.197
X0.3906Y-1.297
X0.4906Y-1.047
X0.4906Y-1.147
X0.4906Y-1.247
X0.4906Y-1.347
T4
X3.9Y-0.365
X3.9Y-0.465
X3.9Y-0.565
X3.9Y-0.665
X3.15Y-1.65
X3.25Y-1.65
X3.35Y-1.65
X3.45Y-1.65
X3.55Y-1.65
X3.65Y-1.65
X3.75Y-1.65
X3.85Y-1.65
X3.95Y-1.65
X2.254Y-1.178
X2.254Y-1.278
X2.354Y-1.178
X2.354Y-1.278
X2.454Y-1.178
X2.454Y-1.278
X0.1Y-1.65
X0.2Y-1.65
X0.3Y-1.65
X0.4Y-1.65
X0.5Y-1.65
X0.6Y-1.65
X0.7Y-1.65
X0.8Y-1.65
X2.05Y-1.65
X2.15Y-1.65
X2.25Y-1.65
X2.35Y-1.65
X2.75Y-1.65
X2.85Y-1.65
X2.95Y-1.65
X2.45Y-1.65
X2.55Y-1.65
X2.65Y-1.65
X1.05Y-1.65
X1.15Y-1.65
X1.25Y-1.65
X1.35Y-1.65
X1.45Y-1.65
X1.55Y-1.65
X1.65Y-1.65
X1.75Y-1.65
X1.85Y-1.65
X1.95Y-1.65
T5
X0.2607Y-0.1169
X0.2607Y-0.7271
X0.2607Y-0.8669
X0.2607Y-1.4771
T6
X3.905Y-0.885
X2.925Y-1.4441
X1.205Y-0.465
T7
X0.1406Y-0.197
X0.1406Y-0.647
X0.1406Y-0.947
X0.1406Y-1.397
T0
M30
